<svg width="60" height="60" viewBox="0 0 60 60" fill="none" xmlns="http://www.w3.org/2000/svg">
<path d="M43.75 11.25C38.875 11.25 33.625 12.25 30 15C26.375 12.25 21.125 11.25 16.25 11.25C12.625 11.25 8.775 11.8 5.55 13.225C3.725 14.05 2.5 15.825 2.5 17.85V46.05C2.5 49.3 5.55 51.7 8.7 50.9C11.15 50.275 13.75 50 16.25 50C20.15 50 24.3 50.65 27.65 52.3C29.15 53.05 30.85 53.05 32.325 52.3C35.675 50.625 39.825 50 43.725 50C46.225 50 48.825 50.275 51.275 50.9C54.425 51.725 57.475 49.325 57.475 46.05V17.85C57.475 15.825 56.25 14.05 54.425 13.225C51.225 11.8 47.375 11.25 43.75 11.25ZM52.5 43.075C52.5 44.65 51.05 45.8 49.5 45.525C47.625 45.175 45.675 45.025 43.75 45.025C39.5 45.025 33.375 46.65 30 48.775V20C33.375 17.875 39.5 16.25 43.75 16.25C46.05 16.25 48.325 16.475 50.5 16.95C51.65 17.2 52.5 18.225 52.5 19.4V43.075Z" fill="url(#paint0_linear_16_35)"/>
<path d="M34.9498 27.525C34.1498 27.525 33.4248 27.025 33.1748 26.225C32.8498 25.25 33.3998 24.1749 34.3748 23.8749C38.2248 22.6249 43.1998 22.2249 47.7748 22.7499C48.7998 22.8749 49.5498 23.7999 49.4248 24.8249C49.2998 25.85 48.3748 26.6 47.3498 26.475C43.2998 26 38.8748 26.375 35.5248 27.45C35.3248 27.475 35.1248 27.525 34.9498 27.525Z" fill="url(#paint1_linear_16_35)"/>
<path d="M34.9498 34.175C34.1498 34.175 33.4248 33.675 33.1748 32.875C32.8498 31.9 33.3998 30.825 34.3748 30.525C38.1998 29.275 43.1998 28.875 47.7748 29.4C48.7998 29.525 49.5498 30.45 49.4248 31.475C49.2998 32.5 48.3748 33.25 47.3498 33.125C43.2998 32.65 38.8748 33.025 35.5248 34.1C35.3248 34.15 35.1248 34.175 34.9498 34.175Z" fill="url(#paint2_linear_16_35)"/>
<path d="M34.9498 40.825C34.1498 40.825 33.4248 40.325 33.1748 39.525C32.8498 38.55 33.3998 37.475 34.3748 37.175C38.1998 35.925 43.1998 35.525 47.7748 36.05C48.7998 36.175 49.5498 37.1 49.4248 38.125C49.2998 39.15 48.3748 39.875 47.3498 39.775C43.2998 39.3 38.8748 39.675 35.5248 40.75C35.3248 40.8 35.1248 40.825 34.9498 40.825Z" fill="url(#paint3_linear_16_35)"/>
<defs>
<linearGradient id="paint0_linear_16_35" x1="51.5" y1="11" x2="2.51023e-07" y2="58" gradientUnits="userSpaceOnUse">
<stop stop-color="#9B4C8E"/>
<stop offset="1" stop-color="#310E2B"/>
</linearGradient>
<linearGradient id="paint1_linear_16_35" x1="41" y1="19" x2="36" y2="32.5" gradientUnits="userSpaceOnUse">
<stop stop-color="#9B4C8E"/>
<stop offset="1" stop-color="#310E2B"/>
</linearGradient>
<linearGradient id="paint2_linear_16_35" x1="50.5" y1="24" x2="30" y2="39.5" gradientUnits="userSpaceOnUse">
<stop stop-color="#9B4C8E"/>
<stop offset="1" stop-color="#310E2B"/>
</linearGradient>
<linearGradient id="paint3_linear_16_35" x1="51.5" y1="30" x2="35.5" y2="46" gradientUnits="userSpaceOnUse">
<stop stop-color="#9B4C8E"/>
<stop offset="0.9999" stop-color="#310E2B"/>
<stop offset="1" stop-color="#310E2B"/>
</linearGradient>
</defs>
</svg>
