<svg width="35" height="35" viewBox="0 0 35 35" fill="none" xmlns="http://www.w3.org/2000/svg">
<path d="M8.50109 27.5355C8.02628 27.2189 7.61795 26.8154 7.13997 26.244C6.89188 25.9404 6.64602 25.6349 6.40244 25.3276C5.66965 24.4175 5.20751 23.9982 4.72954 23.8256C4.33434 23.6837 4.01169 23.3907 3.83257 23.011C3.65344 22.6312 3.63251 22.1958 3.77439 21.8006C3.91626 21.4053 4.20932 21.0827 4.58909 20.9036C4.96887 20.7245 5.40424 20.7036 5.79944 20.8454C6.98962 21.2728 7.7952 22.0088 8.88093 23.3588C8.73215 23.1736 9.41904 24.0345 9.56624 24.2118C9.86694 24.5711 10.0885 24.7895 10.2626 24.905C10.5855 25.1219 11.1916 25.2152 12.0827 25.1266C12.1191 24.522 12.2315 23.9349 12.4024 23.3936C7.70499 22.2446 5.04607 19.2153 5.04607 13.2707C5.04607 11.3082 5.63167 9.54188 6.72056 8.06049C6.37554 6.64557 6.42777 4.93468 7.19853 3.00855C7.28601 2.79068 7.42086 2.59498 7.59331 2.43567C7.76577 2.27635 7.97152 2.1574 8.19563 2.08743C8.32382 2.04944 8.39662 2.03203 8.52482 2.01304C9.79573 1.81838 11.5905 2.2821 13.9297 3.74766C15.3237 3.42177 16.7507 3.25819 18.1823 3.2602C19.6258 3.2602 21.0597 3.4248 22.4304 3.74766C24.7679 2.27102 26.5659 1.8073 27.8463 2.01304C27.9808 2.03362 28.0948 2.06052 28.1912 2.09217C28.411 2.16462 28.6122 2.28437 28.7807 2.44297C28.9491 2.60157 29.0807 2.79517 29.1662 3.01014C29.937 4.93468 29.9893 6.64557 29.6442 8.05891C30.7378 9.54031 31.3187 11.2955 31.3187 13.2707C31.3187 19.2169 28.6693 22.2366 23.9719 23.3872C24.1696 24.044 24.2726 24.7785 24.2726 25.5713C24.2727 27.0042 24.2664 28.4371 24.2535 29.8699C24.609 29.9474 24.9268 30.1451 25.1537 30.4295C25.3805 30.7139 25.5024 31.0679 25.4989 31.4316C25.4954 31.7954 25.3666 32.1468 25.1343 32.4268C24.902 32.7068 24.5803 32.8982 24.2234 32.9688C22.4208 33.3296 21.085 32.1268 21.085 30.5552L21.0882 29.8493L21.0961 28.7336C21.1041 27.613 21.1071 26.616 21.1071 25.5713C21.1071 24.4682 20.8175 23.748 20.4346 23.4189C19.3884 22.5168 19.9186 20.7995 21.2892 20.6461C25.985 20.119 28.1533 18.3005 28.1533 13.2707C28.1533 11.7592 27.6595 10.5105 26.7083 9.46592C26.508 9.24631 26.3734 8.9747 26.3203 8.68218C26.267 8.38968 26.2973 8.0881 26.4076 7.81201C26.6704 7.15677 26.7827 6.29738 26.5596 5.25755L26.5437 5.2623C25.7666 5.4823 24.7869 5.95868 23.6031 6.76427C23.4122 6.89383 23.1953 6.98007 22.9675 7.01698C22.7398 7.05388 22.5067 7.04056 22.2847 6.97793C20.9488 6.60804 19.5686 6.4222 18.1823 6.42558C16.7738 6.42558 15.3779 6.61391 14.08 6.97951C13.8589 7.04165 13.6268 7.05486 13.3999 7.01824C13.1731 6.98161 12.9568 6.89602 12.7664 6.76743C11.5762 5.96501 10.5918 5.4902 9.80997 5.26863C9.58206 6.30213 9.69444 7.15836 9.95558 7.81201C10.0661 8.08796 10.0966 8.38945 10.0437 8.68195C9.9908 8.97445 9.85658 9.24614 9.65645 9.46592C8.71158 10.501 8.21145 11.7734 8.21145 13.2707C8.21145 18.291 10.3813 20.1205 15.0518 20.6461C16.4209 20.7995 16.9526 22.5088 15.9128 23.4126C15.609 23.6785 15.2338 24.5711 15.2338 25.5713V30.5569C15.2338 32.1173 13.9123 33.287 12.1318 32.9751C11.7706 32.9117 11.4425 32.7248 11.2039 32.4464C10.9651 32.1679 10.8306 31.8152 10.8231 31.4486C10.8156 31.0819 10.9357 30.724 11.1629 30.4361C11.39 30.1481 11.7101 29.948 12.0685 29.8699V28.3031C10.6282 28.3997 9.43804 28.1637 8.50109 27.5355Z" fill="url(#paint0_linear_17_67)"/>
<defs>
<linearGradient id="paint0_linear_17_67" x1="17.5" y1="1.9668" x2="17.5" y2="33.0332" gradientUnits="userSpaceOnUse">
<stop stop-color="#8257E6"/>
<stop offset="1" stop-color="#483080"/>
</linearGradient>
</defs>
</svg>
