<svg width="55" height="55" viewBox="0 0 55 55" fill="none" xmlns="http://www.w3.org/2000/svg">
<g clip-path="url(#clip0_16_40)">
<path d="M32.6979 36.3271C33.0187 35.5021 32.8125 34.5625 32.1708 33.9208L27.3813 29.2L27.45 29.1313C31.4375 24.6854 34.2792 19.575 35.9521 14.1667H40.3979C41.6354 14.1667 42.6667 13.1354 42.6667 11.8979V11.8521C42.6667 10.6146 41.6354 9.58333 40.3979 9.58333H26.625V7.29167C26.625 6.03125 25.5938 5 24.3333 5C23.0729 5 22.0417 6.03125 22.0417 7.29167V9.58333H8.26875C7.03125 9.58333 6 10.6146 6 11.8521C6 13.1125 7.03125 14.1208 8.26875 14.1208H31.5979C30.0625 18.5667 27.6333 22.7604 24.3333 26.4271C22.4771 24.3875 20.9188 22.1646 19.6125 19.8271C19.2458 19.1625 18.5813 18.75 17.825 18.75C16.2437 18.75 15.2354 20.4688 16.0146 21.8438C17.4583 24.4333 19.2229 26.9083 21.2854 29.2L11.2708 39.0771C10.3542 39.9708 10.3542 41.4375 11.2708 42.3313C12.1646 43.225 13.6083 43.225 14.525 42.3313L24.3333 32.5L28.9625 37.1292C30.1313 38.2979 32.125 37.8625 32.6979 36.3271ZM43.8125 23.3333C42.4375 23.3333 41.2 24.1812 40.7188 25.4875L32.3083 47.9458C31.7583 49.3438 32.8125 50.8333 34.3021 50.8333C35.1958 50.8333 35.9979 50.2833 36.3188 49.4354L38.3583 43.9583H49.2438L51.3063 49.4354C51.6271 50.2604 52.4292 50.8333 53.3229 50.8333C54.8125 50.8333 55.8667 49.3438 55.3396 47.9458L46.9292 25.4875C46.425 24.1812 45.1875 23.3333 43.8125 23.3333ZM40.1 39.375L43.8125 29.4521L47.525 39.375H40.1Z" fill="url(#paint0_linear_16_40)"/>
</g>
<defs>
<linearGradient id="paint0_linear_16_40" x1="55" y1="12.5" x2="-1.5" y2="48.5" gradientUnits="userSpaceOnUse">
<stop stop-color="#9B4C8E"/>
<stop offset="1" stop-color="#310E2B"/>
</linearGradient>
<clipPath id="clip0_16_40">
<rect width="55" height="55" fill="white"/>
</clipPath>
</defs>
</svg>
