<svg width="35" height="35" viewBox="0 0 35 35" fill="none" xmlns="http://www.w3.org/2000/svg">
<path d="M11.2 2.10001C6.18271 2.10001 2.09998 6.18274 2.09998 11.2V23.8C2.09998 28.8173 6.18271 32.9 11.2 32.9H23.8C28.8172 32.9 32.9 28.8173 32.9 23.8V11.2C32.9 6.18274 28.8172 2.10001 23.8 2.10001H11.2ZM11.2 3.50001H23.8C28.0605 3.50001 31.5 6.93947 31.5 11.2V23.8C31.5 28.0605 28.0605 31.5 23.8 31.5H11.2C6.93944 31.5 3.49998 28.0605 3.49998 23.8V11.2C3.49998 6.93947 6.93944 3.50001 11.2 3.50001ZM25.9 7.70001C25.5287 7.70001 25.1726 7.84751 24.91 8.11006C24.6475 8.37261 24.5 8.7287 24.5 9.10001C24.5 9.47131 24.6475 9.8274 24.91 10.09C25.1726 10.3525 25.5287 10.5 25.9 10.5C26.2713 10.5 26.6274 10.3525 26.8899 10.09C27.1525 9.8274 27.3 9.47131 27.3 9.10001C27.3 8.7287 27.1525 8.37261 26.8899 8.11006C26.6274 7.84751 26.2713 7.70001 25.9 7.70001ZM17.5 9.80001C13.2557 9.80001 9.79998 13.2557 9.79998 17.5C9.79998 21.7443 13.2557 25.2 17.5 25.2C21.7443 25.2 25.2 21.7443 25.2 17.5C25.2 13.2557 21.7443 9.80001 17.5 9.80001ZM17.5 11.2C20.9877 11.2 23.8 14.0123 23.8 17.5C23.8 20.9877 20.9877 23.8 17.5 23.8C14.0123 23.8 11.2 20.9877 11.2 17.5C11.2 14.0123 14.0123 11.2 17.5 11.2Z" fill="url(#paint0_linear_17_89)"/>
<defs>
<linearGradient id="paint0_linear_17_89" x1="17.5" y1="2.10001" x2="17.5" y2="32.9" gradientUnits="userSpaceOnUse">
<stop stop-color="#8257E6"/>
<stop offset="1" stop-color="#483080"/>
</linearGradient>
</defs>
</svg>
