<svg width="35" height="35" viewBox="0 0 35 35" fill="none" xmlns="http://www.w3.org/2000/svg">
<path d="M10.0378 8.05488C10.0375 8.77064 9.7528 9.45694 9.24642 9.96281C8.74005 10.4687 8.05347 10.7527 7.3377 10.7523C6.62194 10.752 5.93563 10.4673 5.42976 9.9609C4.9239 9.45453 4.63991 8.76794 4.64026 8.05218C4.64062 7.33641 4.9253 6.65011 5.43167 6.14424C5.93805 5.63838 6.62464 5.35439 7.3404 5.35474C8.05616 5.3551 8.74247 5.63978 9.24834 6.14615C9.75421 6.65253 10.0382 7.33912 10.0378 8.05488ZM10.1188 12.7507H4.72123V29.6451H10.1188V12.7507ZM18.647 12.7507H13.2763V29.6451H18.593V20.7796C18.593 15.8409 25.0296 15.3821 25.0296 20.7796V29.6451H30.3597V18.9445C30.3597 10.6187 20.833 10.9291 18.593 15.0177L18.647 12.7507Z" fill="url(#paint0_linear_17_65)"/>
<defs>
<linearGradient id="paint0_linear_17_65" x1="17.5" y1="5.35474" x2="17.5" y2="29.6451" gradientUnits="userSpaceOnUse">
<stop stop-color="#8257E6"/>
<stop offset="1" stop-color="#483080"/>
</linearGradient>
</defs>
</svg>
