<svg width="35" height="35" viewBox="0 0 35 35" fill="none" xmlns="http://www.w3.org/2000/svg">
<path d="M32.0833 24.675V29.05C32.085 29.4561 32.0018 29.8582 31.8391 30.2303C31.6763 30.6023 31.4377 30.9365 31.1384 31.211C30.8392 31.4856 30.4858 31.6946 30.1011 31.8247C29.7163 31.9549 29.3087 32.0032 28.9041 31.9666C24.4167 31.479 20.106 29.9456 16.3188 27.4895C12.7951 25.2505 9.80779 22.2632 7.56875 18.7395C5.10414 14.935 3.57036 10.6035 3.09167 6.09578C3.05523 5.69251 3.10316 5.28606 3.2324 4.90232C3.36164 4.51858 3.56938 4.16596 3.84237 3.8669C4.11537 3.56784 4.44764 3.3289 4.81804 3.1653C5.18842 3.00169 5.58883 2.917 5.99375 2.91661H10.3688C11.0765 2.90965 11.7626 3.16027 12.2992 3.62177C12.8358 4.08326 13.1864 4.72415 13.2854 5.42496C13.4701 6.82505 13.8126 8.19977 14.3063 9.52286C14.5025 10.0448 14.5449 10.6121 14.4287 11.1574C14.3123 11.7029 14.0421 12.2034 13.65 12.6L11.7979 14.452C13.8739 18.1031 16.8969 21.126 20.5479 23.202L22.4 21.35C22.7965 20.9579 23.2971 20.6876 23.8425 20.5713C24.3878 20.4551 24.9551 20.4975 25.4771 20.6937C26.8002 21.1875 28.1749 21.5299 29.575 21.7145C30.2834 21.8145 30.9304 22.1713 31.3928 22.7172C31.8554 23.263 32.101 23.9598 32.0833 24.675Z" stroke="url(#paint0_linear_17_60)" stroke-width="2" stroke-linecap="round" stroke-linejoin="round"/>
<defs>
<linearGradient id="paint0_linear_17_60" x1="17.582" y1="2.91647" x2="17.582" y2="31.9785" gradientUnits="userSpaceOnUse">
<stop stop-color="#8257E6"/>
<stop offset="1" stop-color="#483080"/>
</linearGradient>
</defs>
</svg>
